<?xml version="1.0" encoding="UTF-8"?>
<svg id="Layer_1" data-name="Layer 1" xmlns="http://www.w3.org/2000/svg" viewBox="0 0 2972.26 381.4">
  <defs>
    <style>
      .cls-1 {
        fill: #d1d3d4;
      }
    </style>
  </defs>
  <g>
    <path class="cls-1" d="M0,212.25C0,84.57,98.93,0,221.65,0c107.78,0,159.73,63.02,176.86,122.16l-107.23,33.72c-6.62-34.27-35.92-57.47-74.63-57.47-59.69,0-101.16,50.85-101.16,106.13,0,42.01,32.05,78.48,82.9,78.48,28.75,0,61.92-18.78,74.63-42.56l87.34,56.37c-45.88,66.34-117.74,84.57-168.02,84.57C86.77,381.4,0,316.16,0,212.25Z"/>
    <path class="cls-1" d="M365.36,309.54l66.34-79.6c25.43,33.17,77.38,56.37,127.13,56.37,21.01,0,29.3-9.39,29.3-16.04,0-30.95-176.31-29.85-176.31-137.62C411.82,68.54,464.87.55,569.9.55c60.24,0,120.49,21.01,160.85,61.34l-66.89,77.38c-30.4-30.4-77.38-44.76-112.2-44.76-14.36,0-22.65,6.62-22.65,14.91,0,29.3,176.86,30.95,176.86,137.62,0,77.38-60.79,134.33-155.88,134.33-78.5.03-148.16-28.17-184.63-71.83Z"/>
    <path class="cls-1" d="M704.2,309.54l66.34-79.6c25.43,33.17,77.38,56.37,127.13,56.37,21.01,0,29.3-9.39,29.3-16.04,0-30.95-176.31-29.85-176.31-137.62,0-64.12,53.05-132.1,158.08-132.1,60.24,0,120.49,21.01,160.85,61.34l-66.89,77.38c-30.4-30.4-77.38-44.76-112.2-44.76-14.36,0-22.65,6.62-22.65,14.91,0,29.3,176.86,30.95,176.86,137.62,0,77.38-60.79,134.33-155.88,134.33-78.5.03-148.16-28.17-184.63-71.83Z"/>
  </g>
  <g>
    <path class="cls-1" d="M1667.79,374.75l30.95-140.94h-132.1l-30.95,140.94h-111.65L1505.29,6.09h111.65l-28.75,130.43h132.1l28.75-130.43h111.65l-81.25,368.66h-111.65Z"/>
    <path class="cls-1" d="M1839.15,374.75L1920.4,6.09h279.67l-21.56,97.29h-168.02l-7.72,36.49h164.15l-21.56,97.29h-164.15l-8.84,40.34h168.02l-21.56,97.29h-279.69v-.03Z"/>
    <path class="cls-1" d="M2375.86,374.75l-25.43-116.07h-44.78l-25.43,116.07h-111.65L2249.82,6.09h179.08c66.89,0,123.81,43.66,123.81,111.65s-42.56,115.52-90.64,132.65l36.49,124.36h-122.71ZM2395.19,161.4c24.3,0,42.01-10.52,42.01-31.5,0-15.49-13.81-26.53-30.95-26.53h-66.34l-12.71,58.05h67.99v-.02Z"/>
    <path class="cls-1" d="M2558.81,212.25c0-117.72,93.41-212.25,221.65-212.25,108.9,0,191.8,68.54,191.8,168.02,0,117.74-92.86,213.35-221.07,213.35-109.45.03-192.37-69.06-192.37-169.12ZM2856.74,176.89c0-45.33-33.17-78.48-82.9-78.48-58.6,0-99.51,49.75-99.51,106.13,0,45.33,33.17,78.48,82.92,78.48,58.57,0,99.48-49.75,99.48-106.13Z"/>
  </g>
  <path class="cls-1" d="M1388.97,155.16h-115.44l32.2-139.5c1.22-5.37-1.37-10.86-6.32-13.29-4.95-2.45-10.89-1.15-14.39,3.1l-165.87,201.41c-2.92,3.55-3.52,8.44-1.57,12.59,1.95,4.15,6.12,6.79,10.72,6.79h115.44l-32.2,139.5c-1.22,5.37,1.37,10.86,6.32,13.29,1.67.82,3.47,1.22,5.25,1.22,3.47,0,6.84-1.5,9.14-4.32l165.87-201.41c2.92-3.55,3.52-8.44,1.57-12.59-1.97-4.15-6.14-6.79-10.72-6.79Z"/>
</svg>