<?xml version="1.0" encoding="UTF-8"?>
<svg id="Layer_1" data-name="Layer 1" xmlns="http://www.w3.org/2000/svg" viewBox="0 0 4128 3528.12">
  <defs>
    <style>
      .cls-1 {
        fill: none;
        stroke: #e9b320;
        stroke-linecap: round;
        stroke-linejoin: round;
        stroke-width: 128px;
      }
    </style>
  </defs>
  <path class="cls-1" d="M2145.8,428.98c-140.4,158.4-230,299.2-283,433.2l430.6,431.2c39.04,39.05,39.04,102.35,0,141.4l-458.6,458.6c-39.04,39.05-39.04,102.35,0,141.4l229.2,229.4"/>
  <path class="cls-1" d="M2365.6,3326.78c-145.06,166.61-397.73,184.08-564.34,39.01-12.61-10.98-24.52-22.74-35.66-35.21l-1101.6-1066.4C364,1964.18,64,1624.18,64,1164.18c-.1-607.51,492.31-1100.08,1099.82-1100.18,312.2-.05,609.71,132.56,818.38,364.78,46.03,42.99,117.46,43.08,163.6.2,406.05-451.88,1101.54-489.03,1553.42-82.98,232.17,208.62,364.77,506.05,364.78,818.18,0,458-300,800-600,1100l-1098.4,1062.6Z"/>
</svg>